<mxfile host="app.diagrams.net" modified="2022-08-08T10:12:15.282Z" agent="5.0 (Windows NT 10.0; Win64; x64) AppleWebKit/537.36 (KHTML, like Gecko) Chrome/103.0.5060.134 Safari/537.36" etag="agt-oYBcJQm2Bt0zATP7" version="20.1.4" type="github">
  <diagram id="lDYgLnHOSmf_2kooWoud" name="Page-1">
    <mxGraphModel dx="1422" dy="790" grid="1" gridSize="10" guides="1" tooltips="1" connect="1" arrows="1" fold="1" page="1" pageScale="1" pageWidth="850" pageHeight="1100" math="0" shadow="0">
      <root>
        <mxCell id="0" />
        <mxCell id="1" parent="0" />
        <mxCell id="frODsyuhbDlpbOgs6f4E-1" value="" style="whiteSpace=wrap;html=1;aspect=fixed;" vertex="1" parent="1">
          <mxGeometry x="330" y="200" width="220" height="220" as="geometry" />
        </mxCell>
        <mxCell id="frODsyuhbDlpbOgs6f4E-2" value="NFT" style="text;html=1;strokeColor=none;fillColor=none;align=center;verticalAlign=middle;whiteSpace=wrap;rounded=0;" vertex="1" parent="1">
          <mxGeometry x="410" y="295" width="60" height="30" as="geometry" />
        </mxCell>
        <mxCell id="frODsyuhbDlpbOgs6f4E-3" value="&lt;b&gt;metadata&lt;/b&gt;{&lt;br&gt;name : &quot;&quot;,&lt;br&gt;description: &quot;&quot;,&lt;br&gt;.,&lt;br&gt;.,}" style="text;html=1;strokeColor=none;fillColor=none;align=center;verticalAlign=middle;whiteSpace=wrap;rounded=0;" vertex="1" parent="1">
          <mxGeometry x="110" y="300" width="60" height="30" as="geometry" />
        </mxCell>
        <mxCell id="frODsyuhbDlpbOgs6f4E-5" value="" style="endArrow=classic;html=1;rounded=0;entryX=0;entryY=0.5;entryDx=0;entryDy=0;" edge="1" parent="1" target="frODsyuhbDlpbOgs6f4E-1">
          <mxGeometry width="50" height="50" relative="1" as="geometry">
            <mxPoint x="200" y="310" as="sourcePoint" />
            <mxPoint x="300" y="320" as="targetPoint" />
          </mxGeometry>
        </mxCell>
      </root>
    </mxGraphModel>
  </diagram>
</mxfile>
